<svg id="Solid_line" height="512" viewBox="0 0 64 64" width="512" xmlns="http://www.w3.org/2000/svg"><path d="m51.808 16.605 2.399-2.398c1.217-1.217 1.217-3.197 0-4.414-1.178-1.18-3.236-1.18-4.414 0l-2.399 2.398c-11.221-9.4-27.535-12.068-28.238-12.179-.521-.083-.999.244-1.126.744-.019.075-1.96 7.47-8.305 9.283-.427.122-.722.51-.725.955-.003.444.287.836.713.964.028.008 2.853.887 4.508 4.076 1.636 3.15 1.578 7.406-.169 12.649-.165.494.076 1.031.555 1.235l5.007 2.146c1.836.787 3.527 1.81 5.076 3.002l-17.777 17.777c-.202.202-.545.21-.757 0-.1-.102-.156-.236-.156-.378 0-.143.056-.277.157-.378l1.5-1.5c.566-.566.878-1.32.878-2.123 0-.802-.312-1.556-.879-2.123-1.128-1.126-3.109-1.133-4.243.001l-1.5 1.5c-1.233 1.234-1.913 2.876-1.913 4.623 0 1.748.68 3.389 1.913 4.622 1.233 1.234 2.873 1.913 4.617 1.913 1.738 0 3.381-.678 4.627-1.913l17.776-17.776c1.192 1.549 2.215 3.24 3.003 5.077l2.146 5.007c.204.478.742.717 1.235.555 5.22-1.74 9.464-1.804 12.61-.189 3.186 1.634 4.107 4.504 4.115 4.528.127.421.517.711.958.711h.007c.443-.003.833-.298.955-.725 1.812-6.346 9.208-8.286 9.282-8.305.501-.127.824-.615.743-1.125-.111-.704-2.778-17.018-12.179-28.24zm-.601-5.398c.424-.424 1.162-.424 1.586 0 .437.437.437 1.149 0 1.586l-3.363 3.363-1.586-1.586zm-31.512-9.064c3.392.66 16.197 3.539 25.527 10.86-9.008-3.341-23.423-3.422-30.743-3.207 3.139-2.471 4.651-6.003 5.216-7.653zm-4.28 47.858-1.416-1.416 12.225-12.225c.492.452.964.923 1.416 1.416zm18.358-6.402c-2.588-6.037-7.337-10.786-13.373-13.372l-3.286-1.409c4.625-2.928 18.736-11.282 29.854-11.788-.504 11.118-8.858 25.23-11.786 29.855zm20.432 5.921c.216-7.32.134-21.734-3.207-30.742 7.32 9.33 10.199 22.135 10.859 25.527-1.649.565-5.181 2.077-7.652 5.215z"/></svg>